<svg 
 xmlns="http://www.w3.org/2000/svg"
 xmlns:xlink="http://www.w3.org/1999/xlink"
 width="126px" height="85px">
<path fill-rule="evenodd"  stroke-width="2px" stroke="rgb(255, 255, 255)" fill-opacity="0" fill="rgb(114, 179, 204)"
 d="M13.972,5.145 L112.871,5.145 C117.290,5.145 120.871,8.727 120.871,13.145 L120.871,71.620 C120.871,76.038 117.290,79.621 112.871,79.621 L13.972,79.621 C9.554,79.621 5.972,76.038 5.972,71.620 L5.972,13.145 C5.972,8.727 9.554,5.145 13.972,5.145 Z"/>
<path fill-rule="evenodd"  fill="rgb(255, 255, 255)"
 d="M76.551,39.919 L67.871,34.790 C65.935,33.645 62.766,31.775 60.822,30.630 L51.823,25.501 C49.888,24.356 47.985,25.275 47.985,27.549 L47.985,56.450 C47.985,58.716 49.888,59.644 51.823,58.498 L60.663,53.370 C62.606,52.224 65.856,50.354 67.791,49.209 L76.511,44.080 C78.446,42.935 78.486,41.064 76.551,39.919 Z"/>
</svg>